<?xml version="1.0" encoding="utf-8"?>
<!-- Generator: Adobe Illustrator 16.0.0, SVG Export Plug-In . SVG Version: 6.00 Build 0)  -->
<!DOCTYPE svg PUBLIC "-//W3C//DTD SVG 1.1//EN" "http://www.w3.org/Graphics/SVG/1.1/DTD/svg11.dtd">
<svg version="1.1" id="Layer_1" xmlns="http://www.w3.org/2000/svg" xmlns:xlink="http://www.w3.org/1999/xlink" x="0px" y="0px"
	 width="60px" height="60px" viewBox="0 0 60 60" enable-background="new 0 0 60 60" xml:space="preserve">
<g>
	<g>
		<path fill="#707071" d="M41.798,44.674c3.081,0.386,4.142-11.575,10.798-11.093c0,0-1.833,6.656-0.964,6.945
			c0,0,4.147-1.833,5.305-3.28c0,0,3.672,9.164-7.569,14.662h-8.989L41.798,44.674z"/>
		<g>
			<g>
				<g>
					<path fill="#C3C3C2" d="M19.371,18.227l0.002,0C14.349,7.116,2.243,8.115,2.243,8.115c-0.675,6.463,2.966,15.931,2.966,15.931
						l0.01-0.004c-1.292,0.871-2.582,1.856-3.844,2.979l23.022,20.708V17.632C24.397,17.632,22.417,17.634,19.371,18.227z"/>
					<path fill="#C3C3C2" d="M24.397,49.593v2.315H8.417c0,0-3.492-5.856,0.463-16.467L24.397,49.593z"/>
				</g>
				<g>
					<path fill="#939292" d="M29.424,18.227l-0.002,0c5.024-11.11,17.13-10.111,17.13-10.111c0.675,6.463-2.966,15.931-2.966,15.931
						l-0.011-0.004c1.293,0.871,2.582,1.856,3.845,2.979L24.397,47.729V17.632C24.397,17.632,26.378,17.634,29.424,18.227z"/>
					<path fill="#939292" d="M24.397,49.593v2.315h15.981c0,0,3.492-5.855-0.462-16.467L24.397,49.593z"/>
				</g>
			</g>
			<path fill="#707071" d="M24.397,45.06c-2.25,0-3.682,2.074-3.682,2.074l3.682,3.521l3.682-3.521
				C28.08,47.134,26.648,45.06,24.397,45.06z"/>
		</g>
	</g>
	<path fill="#707071" d="M43.595,24.024l-0.018,0.018c-1.355-0.958-3.68-3.001-3.68-3.001c0.579-3.666,6.656-12.926,6.656-12.926
		C47.211,14.415,43.768,23.567,43.595,24.024z"/>
	<path fill="#707071" d="M5.202,24.024l0.017,0.018c1.354-0.958,3.68-3.001,3.68-3.001C8.32,17.375,2.243,8.115,2.243,8.115
		C1.584,14.415,5.028,23.567,5.202,24.024z"/>
</g>
</svg>
